<svg width="1200" height="628" viewBox="-300 0 1200 628" xmlns="http://www.w3.org/2000/svg">
  <rect width="1200" height="628" x="-300" fill="#003b5e"/>
    <path fill="#003b5e" d="M0 0h512v512H0z"/>
    <path fill="#001d2f" d="M213 275c-40 54-91 111-141 64l1 532h140V275z"/>
    <path d="M213 872H73v-1l-2-533 1 1c14 12 29 18 44 17 35-4 68-43 96-82l1-1v599zm-139-1h138V276c-28 38-61 78-96 81-15 1-30-4-44-17l2 531z"/>
    <path fill="#809daf" d="M440 377c-70 56-150 12-227-103v597l635-1-2-324c-71 46-102-1-169-59-103 103-189-16-237-110z"/>
    <path d="M212 872V275l1-2c51 76 101 120 149 127 27 4 53-4 77-23h1c20 39 40 70 61 94 27 32 55 50 82 54l13 1c27 0 54-13 81-39v-1 1l28 24c25 23 45 41 67 49 23 8 46 4 74-14h1v1l2 324-637 1zm1-597v596l635-1-2-322c-28 17-51 22-75 13-21-8-41-26-67-49l-27-24c-31 30-62 43-94 38-27-4-55-22-83-54-20-24-41-55-60-94a99 99 0 0 1-78 23c-48-7-98-50-149-126z"/>
    <path fill="#f37" stroke="#fff" stroke-linecap="round" stroke-miterlimit="23" stroke-width="3.6" d="M45 177h24v24h24v-24h24v72H93v-24H69v24H45v-72zm96 0h24v24h24v-24h24v72h-24v-24h-24v24h-24v-72z"/>
    <path fill="#fff" stroke="#001d2f" stroke-linecap="round" stroke-miterlimit="23" stroke-width="3.6" d="M237 177h72v24h-24v48h-24v-48h-24v-24zm96 0h24l12 12 12-12h24v72h-24v-48l-12 12-12-12v48h-24v-72zm96 0h24v48h24v24h-48v-72z"/>
</svg>