<svg xmlns="http://www.w3.org/2000/svg" viewBox="125 250 661 570" width="776" height="570" fill="none">
    <path fill="#001d2f" d="M213 275c-40 54-91 111-141 64l1 532h140V275z"/>
    <path d="M213 872H73v-1l-2-533 1 1c14 12 29 18 44 17 35-4 68-43 96-82l1-1v599zm-139-1h138V276c-28 38-61 78-96 81-15 1-30-4-44-17l2 531z"/>
    <path fill="#809daf" d="M440 377c-70 56-150 12-227-103v597l635-1-2-324c-71 46-102-1-169-59-103 103-189-16-237-110z"/>
    <path d="M212 872V275l1-2c51 76 101 120 149 127 27 4 53-4 77-23h1c20 39 40 70 61 94 27 32 55 50 82 54l13 1c27 0 54-13 81-39v-1 1l28 24c25 23 45 41 67 49 23 8 46 4 74-14h1v1l2 324-637 1zm1-597v596l635-1-2-322c-28 17-51 22-75 13-21-8-41-26-67-49l-27-24c-31 30-62 43-94 38-27-4-55-22-83-54-20-24-41-55-60-94a99 99 0 0 1-78 23c-48-7-98-50-149-126z"/>
</svg>